<?xml version="1.0" encoding="utf-8"?>
<svg xmlns="http://www.w3.org/2000/svg" fill="none" height="50" viewBox="0 0 37 50" width="37">
<path d="M33.5283 13.0376L33.0539 19.3421L31.6875 37.5316L31.0642 45.8147C30.9178 47.7618 29.2972 49.2676 27.3475 49.2676H9.48157C7.53187 49.2676 5.91124 47.7619 5.76489 45.8147L5.1416 37.5316L3.77518 19.3421L3.30078 13.0376H33.5283Z" fill="#D8ECFE"/>
<path d="M33.5277 13.0381L33.0534 19.3418L31.6874 37.5312L31.0638 45.8144C30.9176 47.7617 29.2966 49.2675 27.3477 49.2675H24.8086C26.7586 49.2675 28.3785 47.7617 28.5248 45.8144L29.1484 37.5312L30.5154 19.3418L30.9897 13.0381H33.5277Z" fill="#B3DAFE"/>
<path d="M36.0667 13.0377H0.761719V8.30205C0.761719 7.61826 1.33819 7.06396 2.04933 7.06396H34.779C35.4901 7.06396 36.0666 7.61826 36.0666 8.30205L36.0667 13.0377Z" fill="#B57F5F"/>
<path d="M36.0671 8.30176V13.0381H33.528V8.30176C33.528 7.61816 32.9522 7.06348 32.2402 7.06348H34.7793C35.4902 7.06348 36.0671 7.61816 36.0671 8.30176Z" fill="#9F6E50"/>
<path d="M34.1599 7.06376H2.66797L5.11339 0.732422L32.3622 2.40957L34.1599 7.06376Z" fill="#B57F5F"/>
<path d="M34.1613 7.06347H31.7238L29.8672 2.25586L32.3636 2.40918L34.1613 7.06347Z" fill="#9F6E50"/>
<path d="M34.1216 19.342L32.7923 37.5316H4.03443L2.70508 19.342H34.1216Z" fill="#E2A975"/>
<path d="M34.1228 19.3418L32.7934 37.5312H30.2543L31.5838 19.3418H34.1228ZM18.4141 33.3406C16.2255 33.3406 14.4512 31.6346 14.4512 29.5301V27.3435C14.4512 25.2391 16.2255 23.533 18.4141 23.533C20.6028 23.533 22.3771 25.2391 22.3771 27.3435V29.5301C22.3771 31.6346 20.6028 33.3406 18.4141 33.3406Z" fill="#B57F5F"/>
<path d="M22.377 27.3437V29.5303C22.377 31.6348 20.6027 33.3408 18.4141 33.3408C17.9702 33.3408 17.5437 33.2705 17.1445 33.1416C18.7106 32.6328 19.838 31.208 19.838 29.5303V27.3437C19.838 26.291 19.3941 25.3389 18.6771 24.6494C18.2463 24.2347 17.7218 23.9209 17.1445 23.7324C17.5437 23.6035 17.9702 23.5332 18.4141 23.5332C19.5089 23.5332 20.4991 23.96 21.2162 24.6494C21.9332 25.3389 22.377 26.291 22.377 27.3437Z" fill="#9F6E50"/>
<path d="M34.7789 6.33139H34.6897L33.0765 2.15454C33.0252 2.02188 32.9351 1.90633 32.817 1.82186C32.6989 1.7374 32.5579 1.68762 32.411 1.67856L11.8883 0.415478C11.4694 0.390478 11.1064 0.695947 11.0795 1.09966C11.0525 1.50337 11.3711 1.85151 11.791 1.87739L31.8204 3.1102L33.0646 6.33139H3.7636L5.63032 1.49809L8.23134 1.65825C8.33117 1.66439 8.43128 1.65157 8.52595 1.62051C8.62063 1.58945 8.70802 1.54077 8.78312 1.47724C8.85823 1.4137 8.91959 1.33657 8.9637 1.25024C9.0078 1.1639 9.03379 1.07006 9.04018 0.974072C9.04657 0.878081 9.03323 0.78182 9.00093 0.690786C8.96863 0.599751 8.918 0.515726 8.85192 0.443507C8.78585 0.371287 8.70563 0.312289 8.61584 0.26988C8.52606 0.22747 8.42846 0.202481 8.32863 0.196338L5.16222 0.0015139C4.99875 -0.00860907 4.83624 0.0322366 4.69883 0.117985C4.56142 0.203733 4.45644 0.329809 4.39948 0.47749L2.1385 6.33139H2.04933C0.919344 6.33139 0 7.21537 0 8.3019V13.0376C0 13.2319 0.0802525 13.4182 0.223102 13.5555C0.365952 13.6929 0.559698 13.7701 0.761719 13.7701H2.59177L2.95598 18.6097C2.46269 18.5699 1.90369 18.8134 1.94614 19.3935L3.27549 37.583C3.28901 37.7679 3.37493 37.941 3.51593 38.0674C3.65693 38.1938 3.84252 38.2641 4.03528 38.2641H30.8683L30.3041 45.7618C30.1871 47.317 28.8882 48.5352 27.3471 48.5352H9.48106C7.93995 48.5352 6.64107 47.317 6.52407 45.7618L6.16809 41.0306C6.15141 40.8384 6.05657 40.6603 5.90417 40.535C5.75177 40.4096 5.5541 40.3471 5.35407 40.361C5.15403 40.3749 4.96777 40.4641 4.83572 40.6093C4.70367 40.7544 4.63647 40.9438 4.64872 41.1362L5.0047 45.8675C5.17898 48.1848 7.14523 50 9.48106 50H27.347C29.683 50 31.6492 48.1848 31.8235 45.8676L32.3957 38.2641C32.8875 38.3347 33.512 38.1429 33.5528 37.583L34.3583 26.5617C34.3716 26.3685 34.3046 26.178 34.1722 26.032C34.0398 25.886 33.8526 25.7965 33.6516 25.7829C33.4506 25.7693 33.2523 25.8329 33.0999 25.9596C32.9475 26.0863 32.8536 26.2659 32.8386 26.4591L32.0829 36.7993H4.7453L3.523 20.0746H33.3053L33.0982 22.9084C33.0841 23.1022 33.1505 23.2934 33.283 23.4401C33.4155 23.5867 33.6032 23.6767 33.8047 23.6904C33.9045 23.6972 34.0047 23.685 34.0996 23.6545C34.1945 23.6241 34.2822 23.5759 34.3577 23.5128C34.4333 23.4497 34.4951 23.3729 34.5397 23.2868C34.5844 23.2007 34.6109 23.107 34.6179 23.0111L34.8822 19.3936C34.9247 18.8135 34.3657 18.57 33.8724 18.6098L34.2366 13.7702H36.0667C36.2687 13.7702 36.4624 13.693 36.6053 13.5556C36.7481 13.4183 36.8284 13.232 36.8284 13.0377V8.30199C36.8283 7.21537 35.9089 6.33139 34.7789 6.33139ZM32.3449 18.6097H4.48327L4.11907 13.7701H32.709L32.3449 18.6097ZM35.3049 12.3052H1.52334V8.30199C1.5235 8.16793 1.57896 8.0394 1.67754 7.94461C1.77613 7.84981 1.9098 7.79649 2.04923 7.79633H34.7789C34.9183 7.79649 35.052 7.84981 35.1505 7.94461C35.2491 8.0394 35.3046 8.16793 35.3048 8.30199L35.3049 12.3052Z" fill="black"/>
<path d="M18.4206 22.8007L18.4141 22.8005C15.809 22.8005 13.6895 24.8385 13.6895 27.3435V29.53C13.6895 32.0347 15.8084 34.0725 18.4131 34.073H18.4141C21.0193 34.073 23.1388 32.035 23.1388 29.53V27.3435C23.1388 24.8438 21.0283 22.8096 18.4306 22.801C18.4272 22.8009 18.424 22.8007 18.4206 22.8007ZM15.2129 29.53V27.3435C15.2129 26.1513 15.922 25.116 16.9555 24.6049C16.5407 25.8072 16.5222 27.3933 17.8283 28.9048C19.1638 30.4503 18.4382 31.9728 18.0386 32.5863C16.4497 32.4068 15.2129 31.1051 15.2129 29.53ZM21.6154 27.3435V29.53C21.6154 30.7223 20.9063 31.7576 19.8728 32.2686C20.2876 31.0663 20.306 29.4802 19 27.9687C17.6655 26.4243 18.389 24.903 18.7901 24.2874C20.3787 24.4669 21.6154 25.7686 21.6154 27.3435Z" fill="black"/>
</svg>