<?xml version="1.0" encoding="utf-8"?>
<svg xmlns="http://www.w3.org/2000/svg" fill="none" height="50" viewBox="0 0 30 50" width="30">
<path d="M28.6961 12.0253H1.31738V48.1151C1.31738 48.4241 1.44012 48.7204 1.6586 48.9389C1.87708 49.1574 2.1734 49.2801 2.48237 49.2801H27.5301C27.8391 49.2801 28.1354 49.1574 28.3539 48.9389C28.5724 48.7204 28.6951 48.4241 28.6951 48.1151L28.6961 12.0253ZM26.6879 6.06129H3.32557V2.1482C3.32557 1.77258 3.47479 1.41235 3.74039 1.14675C4.00599 0.881146 4.36622 0.731934 4.74184 0.731934H25.2717C25.4577 0.731934 25.6418 0.768566 25.8137 0.83974C25.9855 0.910914 26.1416 1.01524 26.2731 1.14675C26.4046 1.27826 26.509 1.43439 26.5801 1.60622C26.6513 1.77804 26.6879 1.96221 26.6879 2.1482V6.06129Z" fill="#F2F5FB"/>
<path d="M25.7663 12.0253V48.1151C25.7663 48.2681 25.7361 48.4196 25.6776 48.5609C25.619 48.7023 25.5332 48.8307 25.425 48.9389C25.3169 49.0471 25.1884 49.1329 25.0471 49.1914C24.9057 49.25 24.7543 49.2801 24.6013 49.2801H27.5321C27.8411 49.2801 28.1374 49.1574 28.3559 48.9389C28.5744 48.7204 28.6971 48.4241 28.6971 48.1151V12.0253H25.7663ZM25.2726 0.73291H22.3418C22.7174 0.73291 23.0776 0.882123 23.3432 1.14772C23.6088 1.41332 23.7581 1.77356 23.7581 2.14917V6.06227H26.6889V2.14917C26.6889 1.77356 26.5397 1.41332 26.2741 1.14772C26.0085 0.882123 25.6483 0.73291 25.2726 0.73291Z" fill="#E6E8F0"/>
<path d="M1.31738 30.1646V38.1249L28.6961 31.2869V23.3267L1.31738 30.1646Z" fill="#FA955A"/>
<path d="M13.7422 22.3007C14.161 22.2378 14.584 22.2062 15.0075 22.2063C17.2477 22.2063 19.3962 23.0962 20.9804 24.6803C22.5645 26.2645 23.4544 28.413 23.4544 30.6532C23.4544 31.7625 23.2359 32.8609 22.8114 33.8857C22.3869 34.9105 21.7647 35.8417 20.9804 36.6261C20.196 37.4105 19.2648 38.0327 18.24 38.4572C17.2151 38.8817 16.1167 39.1001 15.0075 39.1001C12.7672 39.1001 10.6187 38.2102 9.0346 36.6261C7.4505 35.042 6.56056 32.8935 6.56056 30.6532C6.55739 28.8431 7.13838 27.0803 8.21717 25.6268" fill="#FFAC7B"/>
<path d="M25.7651 24.0587V32.0195L28.6962 31.2875V23.3267L25.7651 24.0587Z" fill="#F67F58"/>
<path d="M15.0064 22.2063C14.5826 22.2062 14.1593 22.2378 13.7401 22.3007L13.6508 22.3553C15.5833 22.7221 17.3274 23.7517 18.582 25.2668C19.8367 26.7818 20.5233 28.6871 20.5235 30.6542C20.523 32.6402 19.8229 34.5625 18.5461 36.0836C17.2693 37.6047 15.4973 38.6274 13.5415 38.972C14.0252 39.0573 14.5153 39.1005 15.0064 39.1011C17.2466 39.1009 19.395 38.2108 20.979 36.6268C22.5631 35.0427 23.4531 32.8944 23.4533 30.6542C23.4535 29.5449 23.2351 28.4464 22.8107 27.4214C22.3862 26.3965 21.764 25.4652 20.9797 24.6807C20.1953 23.8962 19.264 23.2739 18.2392 22.8494C17.2143 22.4248 16.1158 22.2063 15.0064 22.2063Z" fill="#FA955A"/>
<path d="M8.2168 25.626C9.54565 23.8293 11.5326 22.6327 13.7422 22.2986L8.2168 25.626Z" fill="#FFAC7B"/>
<path d="M12.3303 20.1338C13.7397 21.5432 13.7596 23.9538 13.6643 25.1695C13.6476 25.3853 13.5544 25.5879 13.4013 25.7409C13.2483 25.8939 13.0457 25.9872 12.8299 26.0038C11.6152 26.1032 9.2036 26.0793 7.79418 24.6699C6.52283 23.3986 5.84742 20.7754 5.53256 19.1187C5.49999 18.948 5.50965 18.772 5.56072 18.606C5.61179 18.44 5.7027 18.2889 5.82553 18.1661C5.94836 18.0433 6.09938 17.9524 6.26542 17.9013C6.43145 17.8502 6.60746 17.8406 6.77809 17.8731C8.43482 18.188 11.058 18.8664 12.3293 20.1348" fill="#80D57B"/>
<path d="M19.3951 29.9212C19.3951 30.1156 19.3179 30.302 19.1804 30.4395C19.043 30.5769 18.8565 30.6542 18.6621 30.6542C18.4679 30.6539 18.2817 30.5765 18.1445 30.4391C18.0073 30.3017 17.9302 30.1154 17.9302 29.9212C17.9302 29.7268 18.0074 29.5404 18.1448 29.4029C18.2823 29.2655 18.4687 29.1882 18.6631 29.1882C18.8575 29.1882 19.044 29.2655 19.1814 29.4029C19.3189 29.5404 19.3951 29.7268 19.3951 29.9212ZM20.1271 34.1531C20.1271 34.3475 20.0498 34.5339 19.9124 34.6714C19.7749 34.8088 19.5885 34.8861 19.3941 34.8861C19.1999 34.8858 19.0137 34.8085 18.8765 34.671C18.7392 34.5336 18.6621 34.3473 18.6621 34.1531C18.6621 33.9587 18.7394 33.7723 18.8768 33.6348C19.0143 33.4974 19.2007 33.4201 19.3951 33.4201C19.5895 33.4201 19.7759 33.4974 19.9134 33.6348C20.0508 33.7723 20.1271 33.9587 20.1271 34.1531ZM15.7392 34.1531C15.7392 34.3475 15.662 34.5339 15.5246 34.6714C15.3871 34.8088 15.2007 34.8861 15.0063 34.8861C14.812 34.8858 14.6259 34.8085 14.4886 34.671C14.3514 34.5336 14.2743 34.3473 14.2743 34.1531C14.2743 33.9587 14.3515 33.7723 14.489 33.6348C14.6264 33.4974 14.8129 33.4201 15.0073 33.4201C15.2017 33.4201 15.3881 33.4974 15.5255 33.6348C15.663 33.7723 15.7392 33.9587 15.7392 34.1531ZM28.6961 12.5228H1.31739C1.23862 12.5228 1.16096 12.5041 1.09085 12.4682C1.02074 12.4323 0.960174 12.3802 0.914167 12.3162C0.868194 12.2523 0.838094 12.1783 0.826351 12.1004C0.814608 12.0225 0.821559 11.943 0.846631 11.8683L2.85482 5.90433C2.88808 5.80586 2.9514 5.7203 3.03586 5.65972C3.12031 5.59914 3.22165 5.56659 3.32559 5.56665H26.6879C26.7919 5.56659 26.8932 5.59914 26.9777 5.65972C27.0621 5.7203 27.1255 5.80586 27.1587 5.90433L29.1669 11.8683C29.192 11.943 29.1989 12.0225 29.1872 12.1004C29.1754 12.1783 29.1453 12.2523 29.0994 12.3162C29.0534 12.3802 28.9928 12.4323 28.9227 12.4682C28.8526 12.5041 28.7749 12.5228 28.6961 12.5228ZM2.00864 11.5296H28.0049L26.3314 6.55883H3.6871L2.00864 11.5296Z" fill="black"/>
<path d="M28.6961 39.0375C28.5644 39.0375 28.4381 38.9852 28.345 38.8921C28.2519 38.799 28.1995 38.6727 28.1995 38.541V12.5199H1.81397V22.9392C1.81397 23.0709 1.76165 23.1973 1.66852 23.2904C1.5754 23.3835 1.44909 23.4358 1.31739 23.4358C1.18568 23.4358 1.05937 23.3835 0.966247 23.2904C0.873119 23.1973 0.820801 23.0709 0.820801 22.9392V12.0233C0.820801 11.8916 0.873119 11.7653 0.966247 11.6722C1.05937 11.579 1.18568 11.5267 1.31739 11.5267H28.6961C28.8278 11.5267 28.9541 11.579 29.0473 11.6722C29.1404 11.7653 29.1927 11.8916 29.1927 12.0233V38.541C29.1927 38.6727 29.1404 38.799 29.0473 38.8921C28.9541 38.9852 28.8278 39.0375 28.6961 39.0375ZM27.5311 49.7767H2.48238C2.04237 49.7762 1.6205 49.6014 1.30909 49.2905C0.997688 48.9797 0.822114 48.5581 0.820801 48.1181V25.8711C0.820801 25.7394 0.873119 25.6131 0.966247 25.5199C1.05937 25.4268 1.18568 25.3745 1.31739 25.3745C1.44909 25.3745 1.5754 25.4268 1.66852 25.5199C1.76165 25.6131 1.81397 25.7394 1.81397 25.8711V48.1181C1.81423 48.2953 1.88474 48.4652 2.01003 48.5905C2.13533 48.7157 2.30518 48.7863 2.48238 48.7865H27.5301C27.7073 48.7863 27.8772 48.7157 28.0025 48.5905C28.1278 48.4652 28.1983 48.2953 28.1986 48.1181V41.4708C28.1986 41.3391 28.2509 41.2128 28.344 41.1197C28.4371 41.0266 28.5634 40.9742 28.6951 40.9742C28.8268 40.9742 28.9531 41.0266 29.0463 41.1197C29.1394 41.2128 29.1917 41.3391 29.1917 41.4708V48.1181C29.1904 48.5579 29.015 48.9793 28.7038 49.2902C28.3926 49.601 27.971 49.7759 27.5311 49.7767ZM26.6879 6.55788H3.32558C3.19387 6.55788 3.06757 6.50556 2.97444 6.41243C2.88131 6.3193 2.82899 6.193 2.82899 6.06129V2.1482C2.82952 1.64104 3.03122 1.15481 3.38983 0.796192C3.74845 0.437578 4.23468 0.235877 4.74184 0.235352H25.2717C25.7788 0.235877 26.2651 0.437578 26.6237 0.796192C26.9823 1.15481 27.184 1.64104 27.1845 2.1482V6.06129C27.1845 6.193 27.1322 6.3193 27.0391 6.41243C26.9459 6.50556 26.8196 6.55788 26.6879 6.55788ZM3.82216 5.56471H26.1914V2.1482C26.1911 1.90437 26.0941 1.6706 25.9217 1.49818C25.7493 1.32576 25.5155 1.22879 25.2717 1.22852H4.74184C4.49801 1.22879 4.26424 1.32576 4.09182 1.49818C3.9194 1.6706 3.82243 1.90437 3.82216 2.1482V5.56471Z" fill="black"/>
<path d="M24.9561 42.896H21.9537C21.822 42.896 21.6957 42.8437 21.6026 42.7506C21.5095 42.6575 21.4572 42.5312 21.4572 42.3995C21.4572 42.2678 21.5095 42.1414 21.6026 42.0483C21.6957 41.9552 21.822 41.9029 21.9537 41.9029H24.9561C25.0878 41.9029 25.2141 41.9552 25.3072 42.0483C25.4004 42.1414 25.4527 42.2678 25.4527 42.3995C25.4527 42.5312 25.4004 42.6575 25.3072 42.7506C25.2141 42.8437 25.0878 42.896 24.9561 42.896ZM24.9561 45.6928H21.9537C21.822 45.6928 21.6957 45.6405 21.6026 45.5474C21.5095 45.4542 21.4572 45.3279 21.4572 45.1962C21.4572 45.0645 21.5095 44.9382 21.6026 44.8451C21.6957 44.752 21.822 44.6996 21.9537 44.6996H24.9561C25.0878 44.6996 25.2141 44.752 25.3072 44.8451C25.4004 44.9382 25.4527 45.0645 25.4527 45.1962C25.4527 45.3279 25.4004 45.4542 25.3072 45.5474C25.2141 45.6405 25.0878 45.6928 24.9561 45.6928ZM15.0075 39.5977C12.6364 39.5948 10.3633 38.6516 8.68669 36.975C7.01008 35.2984 6.06689 33.0253 6.064 30.6542C6.05855 28.7371 6.67426 26.8697 7.81893 25.3318C7.89796 25.2265 8.01559 25.1568 8.14597 25.1382C8.27635 25.1195 8.40879 25.1535 8.51415 25.2325C8.61952 25.3115 8.68917 25.4292 8.7078 25.5595C8.72642 25.6899 8.69249 25.8224 8.61347 25.9277C7.59595 27.2946 7.04854 28.9542 7.0532 30.6582C7.05557 32.766 7.89395 34.7868 9.38441 36.2773C10.8749 37.7678 12.8957 38.6062 15.0035 38.6085C17.1114 38.6062 19.1322 37.7678 20.6227 36.2773C22.1131 34.7868 22.9515 32.766 22.9539 30.6582C22.9528 28.5502 22.1156 26.5287 20.6258 25.0373C19.1361 23.5458 17.1155 22.7063 15.0075 22.7029C14.6086 22.7028 14.2102 22.7323 13.8157 22.7913C13.7512 22.801 13.6854 22.7979 13.6221 22.7822C13.5588 22.7665 13.4992 22.7385 13.4467 22.6998C13.3943 22.661 13.3499 22.6124 13.3163 22.5565C13.2826 22.5006 13.2603 22.4386 13.2506 22.3741C13.2409 22.3097 13.2439 22.2439 13.2596 22.1806C13.2753 22.1173 13.3033 22.0577 13.3421 22.0052C13.3808 21.9527 13.4295 21.9084 13.4854 21.8747C13.5413 21.8411 13.6032 21.8187 13.6677 21.809C14.1109 21.7428 14.5584 21.7096 15.0065 21.7097C17.3776 21.7126 19.6507 22.6558 21.3273 24.3324C23.0039 26.009 23.9471 28.2821 23.95 30.6532C23.9474 33.0243 23.0045 35.2975 21.328 36.9743C19.6516 38.6511 17.3786 39.5946 15.0075 39.5977Z" fill="black"/>
<path d="M6.57617 17.3567C6.67615 17.3566 6.77591 17.3659 6.87414 17.3845C8.79508 17.749 11.3626 18.4612 12.6846 19.7832C14.2192 21.3178 14.2738 23.8406 14.1626 25.2083C14.138 25.5426 13.9941 25.8569 13.757 26.094C13.52 26.331 13.2057 26.4749 12.8714 26.4995C12.5784 26.5224 12.2824 26.5343 11.9913 26.5343C10.3383 26.6325 8.71078 26.0908 7.44625 25.0216C6.12524 23.7006 5.41308 21.133 5.04756 19.2111C5.00364 18.9848 5.01052 18.7516 5.06772 18.5283C5.12492 18.305 5.23101 18.0972 5.37832 17.9199C5.52422 17.7436 5.70724 17.6018 5.9143 17.5044C6.12136 17.4071 6.34737 17.3566 6.57617 17.3567ZM11.9894 25.54C12.2546 25.54 12.5247 25.5291 12.7919 25.5083C12.8896 25.5009 12.9814 25.4588 13.0506 25.3896C13.1199 25.3203 13.162 25.2285 13.1693 25.1308C13.2448 24.1674 13.2796 21.7856 11.9774 20.4854C10.7746 19.2826 8.1445 18.638 6.68443 18.3609C6.58408 18.3417 6.4804 18.35 6.3844 18.385C6.2884 18.42 6.20365 18.4803 6.13914 18.5595C6.08559 18.6236 6.04709 18.6989 6.02646 18.7799C6.00584 18.8609 6.00361 18.9454 6.01995 19.0273C6.29707 20.4874 6.94168 23.1175 8.1445 24.3203C9.2257 25.1978 10.5991 25.6332 11.9884 25.5391L11.9894 25.54Z" fill="black"/>
<path d="M13.4011 26.2365C13.3359 26.2366 13.2712 26.2239 13.2109 26.199C13.1506 26.1741 13.0958 26.1376 13.0496 26.0915L9.2626 22.3045C9.1695 22.2114 9.1172 22.0851 9.1172 21.9534C9.1172 21.8218 9.1695 21.6955 9.2626 21.6024C9.35572 21.5093 9.482 21.457 9.61368 21.457C9.74536 21.457 9.87164 21.5093 9.96477 21.6024L13.7527 25.3893C13.8223 25.4588 13.8698 25.5473 13.889 25.6438C13.9083 25.7402 13.8984 25.8402 13.8608 25.9311C13.8231 26.0219 13.7593 26.0995 13.6775 26.1541C13.5957 26.2086 13.4995 26.2367 13.4011 26.2365ZM23.454 9.54029H20.4517C20.32 9.54029 20.1936 9.48797 20.1005 9.39484C20.0074 9.30172 19.9551 9.17541 19.9551 9.0437C19.9551 8.912 20.0074 8.78569 20.1005 8.69257C20.1936 8.59944 20.32 8.54712 20.4517 8.54712H23.454C23.5857 8.54712 23.712 8.59944 23.8052 8.69257C23.8983 8.78569 23.9506 8.912 23.9506 9.0437C23.9506 9.17541 23.8983 9.30172 23.8052 9.39484C23.712 9.48797 23.5857 9.54029 23.454 9.54029ZM1.31723 30.6621C1.20646 30.662 1.09888 30.625 1.0116 30.5568C0.924316 30.4886 0.862345 30.3931 0.835538 30.2856C0.803703 30.1579 0.823902 30.0227 0.891694 29.9099C0.959485 29.797 1.06932 29.7157 1.19705 29.6838L6.64261 28.3241C6.77036 28.2923 6.90552 28.3125 7.01838 28.3803C7.13125 28.4481 7.21257 28.5579 7.24447 28.6856C7.27631 28.8134 7.25611 28.9486 7.18832 29.0614C7.12052 29.1743 7.01069 29.2556 6.88296 29.2875L1.4374 30.6472C1.3981 30.657 1.35774 30.662 1.31723 30.6621ZM1.31723 38.6223C1.20646 38.6223 1.09888 38.5852 1.0116 38.517C0.924316 38.4488 0.862345 38.3534 0.835538 38.2459C0.803703 38.1182 0.823902 37.983 0.891694 37.8701C0.959485 37.7573 1.06932 37.676 1.19705 37.6441L8.32305 35.8643C8.4508 35.8325 8.58597 35.8527 8.69883 35.9204C8.81169 35.9882 8.89301 36.0981 8.92492 36.2258C8.95675 36.3535 8.93655 36.4887 8.86876 36.6016C8.80097 36.7144 8.69113 36.7958 8.5634 36.8277L1.4374 38.6064C1.39814 38.6166 1.35778 38.622 1.31723 38.6223ZM21.4121 25.6426C21.3013 25.6425 21.1937 25.6055 21.1064 25.5373C21.0191 25.4691 20.9572 25.3736 20.9304 25.2662C20.8985 25.1384 20.9187 25.0032 20.9865 24.8904C21.0543 24.7775 21.1641 24.6962 21.2919 24.6643L28.5758 22.8448C28.7035 22.813 28.8387 22.8332 28.9516 22.901C29.0644 22.9688 29.1458 23.0786 29.1777 23.2063C29.2095 23.3341 29.1893 23.4692 29.1215 23.5821C29.0537 23.695 28.9439 23.7763 28.8161 23.8082L21.5322 25.6277C21.4929 25.6375 21.4526 25.6425 21.4121 25.6426ZM23.1769 33.3039C23.0687 33.3038 22.9634 33.2683 22.8772 33.2029C22.7909 33.1375 22.7284 33.0456 22.6992 32.9414C22.6638 32.8146 22.6802 32.6789 22.7448 32.5641C22.8095 32.4494 22.917 32.365 23.0438 32.3296L28.4656 30.81C28.5924 30.7746 28.7281 30.791 28.8428 30.8557C28.9575 30.9203 29.0419 31.0279 29.0773 31.1547C29.1128 31.2815 29.0963 31.4172 29.0317 31.5319C28.9671 31.6467 28.8595 31.731 28.7327 31.7665L23.311 33.285C23.2674 33.2974 23.2223 33.3038 23.1769 33.3039Z" fill="black"/>
</svg>