<?xml version="1.0" encoding="utf-8"?>
<svg xmlns="http://www.w3.org/2000/svg" fill="none" height="48" viewBox="0 0 48 48" width="48">
<path d="M36.4258 11.6719L38.539 14.1981C39.9396 15.8723 40.7071 17.9857 40.7072 20.1686V40.8932C40.7072 42.3741 40.1189 43.7942 39.0718 44.8413C38.0247 45.8884 36.6046 46.4767 35.1237 46.4767H12.0449C10.5641 46.4767 9.14388 45.8884 8.09678 44.8413C7.04968 43.7942 6.46143 42.3741 6.46143 40.8932V20.1726C6.46125 17.9898 7.22835 15.8765 8.6286 14.2021L10.7408 11.6719H36.4258Z" fill="#DD636E"/>
<path d="M34.7467 40.8933H12.4119C11.9183 40.8933 11.4449 40.6972 11.0959 40.3482C10.7469 39.9992 10.5508 39.5258 10.5508 39.0322V22.2808C10.5508 21.7872 10.7469 21.3138 11.0959 20.9648C11.4449 20.6158 11.9183 20.4197 12.4119 20.4197H34.7467C35.2403 20.4197 35.7137 20.6158 36.0628 20.9648C36.4118 21.3138 36.6079 21.7872 36.6079 22.2808V39.0322C36.6079 39.5258 36.4118 39.9992 36.0628 40.3482C35.7137 40.6972 35.2403 40.8933 34.7467 40.8933Z" fill="#ECF4FF"/>
<path d="M36.6128 9.43869H10.5557V6.46045H36.6128V9.43869Z" fill="#F1D0A5"/>
<path d="M36.6119 9.43845H34.5649V6.46045H36.6119V9.43845Z" fill="#F1B986"/>
<path d="M38.5422 14.1981L36.429 11.6719H10.74L8.6268 14.1981C8.32297 14.5625 8.04748 14.9497 7.80273 15.3562L10.0249 14.9211C10.4968 14.8289 10.9821 14.8289 11.454 14.9211L14.3053 15.4792C14.7772 15.5714 15.2625 15.5714 15.7344 15.4792L18.5856 14.9211C19.0575 14.8289 19.5428 14.8289 20.0147 14.9211L22.8659 15.4792C23.3379 15.5715 23.8232 15.5715 24.2951 15.4792L27.1463 14.9211C27.6182 14.8289 28.1035 14.8289 28.5754 14.9211L31.4266 15.4792C31.8985 15.5714 32.3838 15.5714 32.8558 15.4792L36.218 14.8211C36.3523 14.7934 36.4908 14.7934 36.6251 14.8211C36.7554 14.8492 36.8788 14.903 36.988 14.9794C37.0973 15.0558 37.1901 15.1533 37.2611 15.2662C38.1732 16.7379 38.6564 18.4351 38.6562 20.1666V40.8932C38.6562 42.3741 38.068 43.7942 37.0209 44.8413C35.9738 45.8884 34.5536 46.4767 33.0728 46.4767H35.1199C35.8532 46.4767 36.5792 46.3323 37.2566 46.0517C37.934 45.7711 38.5496 45.3598 39.068 44.8413C39.5865 44.3229 39.9978 43.7073 40.2784 43.0299C40.559 42.3525 40.7034 41.6265 40.7034 40.8932V20.1686C40.7036 17.9858 39.9365 15.8725 38.5362 14.1981" fill="#DA4A54"/>
<path d="M36.6129 9.43872L38.9821 11.8079C39.0952 11.9206 39.169 12.0666 39.1927 12.2245C39.2164 12.3824 39.1887 12.5437 39.1138 12.6846C39.0388 12.8255 38.9204 12.9385 38.7762 13.0071C38.6321 13.0756 38.4697 13.0959 38.313 13.065L36.4269 12.696L32.1465 13.5331L27.8652 12.696L23.5849 13.5331L19.3045 12.696L15.0242 13.5331L10.7438 12.696L8.85767 13.065C8.70105 13.0959 8.53866 13.0756 8.39447 13.0071C8.25029 12.9385 8.13196 12.8255 8.05696 12.6846C7.98196 12.5437 7.95427 12.3824 7.97798 12.2245C8.00169 12.0666 8.07553 11.9206 8.18861 11.8079L10.5558 9.43872H36.6129Z" fill="#B3E59F"/>
<path d="M38.9839 11.8077L36.6149 9.43872H33.3579L36.6579 12.7387L38.3119 13.0627C38.4686 13.0939 38.6312 13.0738 38.7755 13.0054C38.9199 12.937 39.0384 12.8239 39.1136 12.683C39.1887 12.542 39.2165 12.3806 39.1928 12.2226C39.1691 12.0646 39.0951 11.9184 38.9819 11.8057" fill="#95D6A4"/>
<path d="M36.612 6.46063H10.5579C10.0643 6.46063 9.59093 6.26454 9.2419 5.91551C8.89286 5.56648 8.69678 5.09308 8.69678 4.59948V2.55231C8.69678 2.3079 8.74492 2.06589 8.83845 1.84008C8.93198 1.61428 9.06907 1.4091 9.2419 1.23628C9.41472 1.06346 9.61989 0.926365 9.8457 0.832834C10.0715 0.739302 10.3135 0.691162 10.5579 0.691162H36.615C37.1086 0.691162 37.582 0.887247 37.9311 1.23628C38.2801 1.58531 38.4762 2.0587 38.4762 2.55231V4.59748C38.4762 5.09108 38.2801 5.56448 37.9311 5.91351C37.582 6.26254 37.1086 6.45863 36.615 6.45863" fill="#B3E59F"/>
<path d="M36.612 0.691162H33.7267C34.2203 0.691162 34.6937 0.887247 35.0427 1.23628C35.3918 1.58531 35.5879 2.0587 35.5879 2.55231V4.59948C35.5879 5.09308 35.3918 5.56648 35.0427 5.91551C34.6937 6.26454 34.2203 6.46063 33.7267 6.46063H36.612C37.1056 6.46063 37.579 6.26454 37.928 5.91551C38.277 5.56648 38.4731 5.09308 38.4731 4.59948V2.55231C38.4731 2.0587 38.277 1.58531 37.928 1.23628C37.579 0.887247 37.1056 0.691162 36.612 0.691162ZM28.5423 29.0554C27.5142 29.0554 26.6812 27.5663 26.6812 27.5663C26.6812 27.5663 27.5182 26.0772 28.5423 26.0772C29.5664 26.0772 30.4035 27.5663 30.4035 27.5663C30.4035 27.5663 29.5704 29.0554 28.5423 29.0554Z" fill="#95D6A4"/>
<path d="M28.1709 25.705C28.1709 26.733 26.6819 27.566 26.6819 27.566C26.6819 27.566 25.1929 26.732 25.1929 25.705C25.1929 24.678 26.6819 23.844 26.6819 23.844C26.6819 23.844 28.1709 24.677 28.1709 25.705Z" fill="#B3E59F"/>
<path d="M18.5224 35.7242C19.3124 36.5142 24.5594 36.2672 27.2074 33.6192C28.9424 31.8842 28.4164 29.3012 26.6814 27.5652C24.9464 25.8292 22.3634 25.3042 20.6274 27.0392C17.9794 29.6872 17.7274 34.9392 18.5224 35.7242Z" fill="#DD636E"/>
<path d="M28.2626 31.3325C27.2018 32.1945 25.9678 32.8179 24.6446 33.1605C23.5847 33.4896 22.4692 33.6011 21.3651 33.4884C20.2611 33.3757 19.1911 33.041 18.2196 32.5045C18.0136 34.0625 18.1576 35.3625 18.5196 35.7255C19.3096 36.5155 24.5566 36.2685 27.2046 33.6205C27.8272 33.0143 28.2039 32.1995 28.2626 31.3325Z" fill="#DA4A54"/>
<path d="M32.1454 35.6289H33.6345C33.8178 35.6289 33.9935 35.5561 34.1231 35.4265C34.2527 35.2969 34.3255 35.1212 34.3255 34.9379C34.3255 34.7546 34.2527 34.5788 34.1231 34.4492C33.9935 34.3196 33.8178 34.2468 33.6345 34.2468H32.1454C31.9621 34.2468 31.7863 34.3196 31.6567 34.4492C31.5271 34.5788 31.4543 34.7546 31.4543 34.9379C31.4543 35.1212 31.5271 35.2969 31.6567 35.4265C31.7863 35.5561 31.9621 35.6289 32.1454 35.6289ZM32.1454 38.6062H33.6345C33.8178 38.6062 33.9935 38.5334 34.1231 38.4038C34.2527 38.2742 34.3255 38.0984 34.3255 37.9151C34.3255 37.8244 34.3077 37.7345 34.2729 37.6507C34.2382 37.5668 34.1873 37.4906 34.1231 37.4265C34.059 37.3623 33.9828 37.3114 33.8989 37.2767C33.8151 37.2419 33.7252 37.2241 33.6345 37.2241H32.1454C32.0546 37.2241 31.9647 37.2419 31.8809 37.2767C31.7971 37.3114 31.7209 37.3623 31.6567 37.4265C31.5925 37.4906 31.5416 37.5668 31.5069 37.6507C31.4722 37.7345 31.4543 37.8244 31.4543 37.9151C31.4543 38.0984 31.5271 38.2742 31.6567 38.4038C31.7863 38.5334 31.9621 38.6062 32.1454 38.6062ZM13.5329 35.6289H15.022C15.2053 35.6289 15.381 35.5561 15.5106 35.4265C15.6402 35.2969 15.713 35.1212 15.713 34.9379C15.713 34.7546 15.6402 34.5788 15.5106 34.4492C15.381 34.3196 15.2053 34.2468 15.022 34.2468H13.5329C13.3496 34.2468 13.1738 34.3196 13.0442 34.4492C12.9146 34.5788 12.8418 34.7546 12.8418 34.9379C12.8418 35.1212 12.9146 35.2969 13.0442 35.4265C13.1738 35.5561 13.3496 35.6289 13.5329 35.6289ZM13.5329 38.6062H15.022C15.2053 38.6062 15.381 38.5334 15.5106 38.4038C15.6402 38.2742 15.713 38.0984 15.713 37.9151C15.713 37.8244 15.6952 37.7345 15.6604 37.6507C15.6257 37.5668 15.5748 37.4906 15.5106 37.4265C15.4465 37.3623 15.3703 37.3114 15.2864 37.2767C15.2026 37.2419 15.1127 37.2241 15.022 37.2241H13.5329C13.4421 37.2241 13.3522 37.2419 13.2684 37.2767C13.1846 37.3114 13.1084 37.3623 13.0442 37.4265C12.98 37.4906 12.9291 37.5668 12.8944 37.6507C12.8597 37.7345 12.8418 37.8244 12.8418 37.9151C12.8418 38.0984 12.9146 38.2742 13.0442 38.4038C13.1738 38.5334 13.3496 38.6062 13.5329 38.6062Z" fill="black"/>
<path d="M11.2469 39.0321V22.2807C11.2474 21.9706 11.3708 21.6732 11.5902 21.4539C11.8095 21.2346 12.1068 21.1112 12.417 21.1106H34.7518C35.0619 21.1112 35.3592 21.2346 35.5785 21.4539C35.7979 21.6732 35.9213 21.9706 35.9218 22.2807V39.0321C35.9213 39.3422 35.7979 39.6395 35.5785 39.8589C35.3592 40.0782 35.0619 40.2016 34.7518 40.2022H12.417C12.1068 40.2016 11.8095 40.0782 11.5902 39.8589C11.3708 39.6395 11.2474 39.3422 11.2469 39.0321ZM34.7487 41.5843C35.4254 41.5835 36.0741 41.3143 36.5526 40.8359C37.031 40.3574 37.3002 39.7087 37.301 39.0321V22.2807C37.3002 21.6041 37.031 20.9554 36.5526 20.4769C36.0741 19.9985 35.4254 19.7293 34.7487 19.7285H12.417C11.7403 19.7293 11.0916 19.9985 10.6131 20.4769C10.1347 20.9554 9.86554 21.6041 9.86475 22.2807V39.0321C9.86554 39.7087 10.1347 40.3574 10.6131 40.8359C11.0916 41.3143 11.7403 41.5835 12.417 41.5843H34.7487Z" fill="black"/>
<path d="M40.7074 36.5389C40.6167 36.5389 40.5268 36.5568 40.443 36.5915C40.3591 36.6262 40.283 36.6771 40.2188 36.7413C40.1546 36.8055 40.1037 36.8816 40.069 36.9655C40.0343 37.0493 40.0164 37.1392 40.0164 37.2299V40.8942C40.0143 42.1911 39.4981 43.4343 38.5811 44.3513C37.6641 45.2684 36.4209 45.7845 35.124 45.7866H12.0451C10.7482 45.7845 9.50507 45.2684 8.58802 44.3513C7.67098 43.4343 7.15485 42.1911 7.15274 40.8942V26.1741C7.15274 25.9908 7.07993 25.815 6.95033 25.6854C6.82073 25.5558 6.64496 25.483 6.46168 25.483C6.2784 25.483 6.10263 25.5558 5.97303 25.6854C5.84343 25.815 5.77063 25.9908 5.77063 26.1741V40.8972C5.77248 42.5608 6.43414 44.1556 7.61043 45.3319C8.78673 46.5082 10.3816 47.1699 12.0451 47.1717H35.124C36.7875 47.1699 38.3824 46.5082 39.5587 45.3319C40.735 44.1556 41.3966 42.5608 41.3985 40.8972V37.2329C41.3985 37.1422 41.3806 37.0523 41.3459 36.9685C41.3112 36.8846 41.2603 36.8085 41.1961 36.7443C41.1319 36.6801 41.0557 36.6292 40.9719 36.5945C40.8881 36.5598 40.7982 36.5419 40.7074 36.5419M36.2931 12.0179L32.1447 12.83L27.9964 12.0179C27.9526 12.0093 27.9081 12.0049 27.8634 12.0049C27.8188 12.0049 27.7742 12.0093 27.7304 12.0179L23.5821 12.83L19.4337 12.0179C19.3462 12.0007 19.2562 12.0007 19.1687 12.0179L15.0204 12.83L10.872 12.0179C10.7845 12.0007 10.6945 12.0007 10.607 12.0179L8.72086 12.3869C8.69786 12.3869 8.68186 12.3949 8.66286 12.3599C8.64386 12.3249 8.65586 12.3129 8.67186 12.2969L10.838 10.1298H36.3231L38.4903 12.2969C38.5063 12.3129 38.5183 12.3249 38.4993 12.3599C38.4803 12.3949 38.4643 12.3919 38.4413 12.3869L36.5551 12.0179C36.4676 12.0007 36.3776 12.0007 36.2901 12.0179M11.2431 7.15152H35.9181V8.75165H11.2461L11.2431 7.15152ZM39.0663 13.7521L38.9913 13.662C39.3038 13.5357 39.5617 13.303 39.7194 13.005C39.8651 12.7339 39.9193 12.423 39.8739 12.1186C39.8285 11.8142 39.6859 11.5326 39.4673 11.3159L37.3002 9.14868V7.04851C37.8354 6.89729 38.3066 6.57566 38.6425 6.13241C38.9784 5.68915 39.1605 5.14845 39.1613 4.59231V2.54415C39.1605 1.86751 38.8914 1.2188 38.4129 0.740344C37.9345 0.261885 37.2858 -0.00726261 36.6091 -0.00805664H32.9578C32.8671 -0.00805664 32.7772 0.00981804 32.6934 0.0445468C32.6095 0.0792756 32.5333 0.130178 32.4692 0.194349C32.405 0.258519 32.3541 0.334701 32.3194 0.418543C32.2846 0.502386 32.2668 0.592248 32.2668 0.682999C32.2668 0.77375 32.2846 0.863612 32.3194 0.947455C32.3541 1.0313 32.405 1.10748 32.4692 1.17165C32.5333 1.23582 32.6095 1.28672 32.6934 1.32145C32.7772 1.35618 32.8671 1.37405 32.9578 1.37405H36.6091C36.9194 1.37432 37.217 1.49765 37.4366 1.717C37.6561 1.93635 37.7797 2.23381 37.7802 2.54415V4.59231C37.7797 4.90265 37.6561 5.20011 37.4366 5.41946C37.217 5.63881 36.9194 5.76214 36.6091 5.76241H10.553C10.2427 5.76214 9.9451 5.63881 9.72557 5.41946C9.50603 5.20011 9.38245 4.90265 9.38192 4.59231V2.54415C9.38245 2.23381 9.50603 1.93635 9.72557 1.717C9.9451 1.49765 10.2427 1.37432 10.553 1.37405H29.7256C29.9088 1.37405 30.0846 1.30125 30.2142 1.17165C30.3438 1.04205 30.4166 0.866278 30.4166 0.682999C30.4166 0.49972 30.3438 0.323947 30.2142 0.194349C30.0846 0.0647508 29.9088 -0.00805664 29.7256 -0.00805664H10.553C9.87619 -0.00752731 9.22724 0.261503 8.74856 0.739991C8.26988 1.21848 8.0006 1.86733 7.99981 2.54415V4.59231C8.00061 5.14845 8.18276 5.68915 8.51863 6.13241C8.85451 6.57566 9.32577 6.89729 9.86095 7.04851V9.14868L7.69378 11.3159C7.47525 11.5326 7.33263 11.8142 7.28721 12.1186C7.2418 12.423 7.29601 12.7339 7.44176 13.005C7.59935 13.303 7.85723 13.5358 8.16982 13.662L8.09481 13.7521C6.59087 15.5513 5.76652 17.8215 5.76562 20.1666V22.9388C5.76563 23.1221 5.83843 23.2978 5.96803 23.4274C6.09763 23.557 6.2734 23.6298 6.45668 23.6298C6.63996 23.6298 6.81573 23.557 6.94533 23.4274C7.07493 23.2978 7.14774 23.1221 7.14774 22.9388V20.1666C7.1486 18.1458 7.85898 16.1896 9.1549 14.6391L10.087 13.524L10.738 13.397L14.8864 14.2091C14.9739 14.2263 15.0639 14.2263 15.1514 14.2091L19.2997 13.397L23.448 14.2091C23.5356 14.2263 23.6256 14.2263 23.7131 14.2091L27.8614 13.397L32.0097 14.2091C32.0536 14.2177 32.0981 14.2221 32.1427 14.2221C32.1874 14.2221 32.2319 14.2177 32.2758 14.2091L36.4241 13.397L37.0751 13.524L38.0082 14.6391C39.3041 16.1896 40.0145 18.1458 40.0154 20.1666V33.9927C40.0154 34.176 40.0882 34.3517 40.2178 34.4813C40.3474 34.6109 40.5232 34.6837 40.7064 34.6837C40.8897 34.6837 41.0655 34.6109 41.1951 34.4813C41.3247 34.3517 41.3975 34.176 41.3975 33.9927V20.1666C41.3966 17.822 40.5727 15.5522 39.0693 13.7531" fill="black"/>
<path d="M18.9874 32.0706C19.243 30.3829 19.9818 28.8053 21.1145 27.5283C22.6087 26.0341 24.7988 26.6622 26.191 28.0543C27.5821 29.4464 28.2101 31.6366 26.716 33.1307C25.439 34.2635 23.8614 35.0023 22.1736 35.2579C21.1342 35.5232 20.0437 35.515 19.0084 35.2339C18.7274 34.1985 18.7191 33.1081 18.9844 32.0686M25.8799 25.7031C25.8799 25.3791 26.28 24.9601 26.68 24.667C27.075 24.9611 27.4801 25.3791 27.4801 25.7031C27.478 25.7746 27.4616 25.845 27.4321 25.9101C27.2674 26.2193 27.0324 26.4855 26.746 26.6872C26.5501 26.5217 26.3448 26.3677 26.131 26.2262C25.9942 26.0834 25.9072 25.9003 25.8829 25.7041M29.5782 27.5653C29.2842 27.9603 28.8652 28.3653 28.5421 28.3653C28.3462 28.3416 28.1631 28.2554 28.0201 28.1193C27.9234 27.9733 27.8201 27.83 27.7101 27.6893C28.0346 27.4301 28.3147 27.1197 28.5391 26.7702C28.8632 26.7702 29.2812 27.1702 29.5752 27.5703M20.3675 36.815C21.008 36.811 21.6472 36.7548 22.2786 36.647C24.2964 36.3575 26.1823 35.4739 27.6961 34.1088C28.167 33.6455 28.5238 33.0791 28.7384 32.4543C28.9529 31.8295 29.0192 31.1634 28.9322 30.5085C28.8994 30.245 28.8459 29.9845 28.7722 29.7294C30.0403 29.5644 30.9073 28.0803 31.0073 27.9023C31.0651 27.7992 31.0954 27.6829 31.0954 27.5648C31.0954 27.4466 31.0651 27.3304 31.0073 27.2272C30.5512 26.3596 29.7715 25.7067 28.8372 25.4101C28.5411 24.4753 27.8881 23.695 27.02 23.2389C26.9169 23.1812 26.8007 23.1509 26.6825 23.1509C26.5643 23.1509 26.4481 23.1812 26.345 23.2389C26.167 23.3389 24.6838 24.205 24.5178 25.4741C24.2627 25.4004 24.0022 25.3469 23.7388 25.3141C23.084 25.2267 22.4179 25.2929 21.793 25.5072C21.1682 25.7216 20.6017 26.0783 20.1385 26.5492C18.7752 28.0623 17.8927 29.9466 17.6033 31.9626C17.3482 33.4707 17.3082 35.4879 18.0323 36.212C18.7163 36.6819 19.5447 36.8945 20.3705 36.812" fill="black"/>
<path d="M22.4045 30.1653C22.495 30.1657 22.5846 30.1482 22.6684 30.1139C22.7521 30.0796 22.8283 30.0291 22.8925 29.9653L23.4185 29.4393C23.548 29.3097 23.6207 29.134 23.6207 28.9508C23.6207 28.7676 23.548 28.5919 23.4185 28.4623C23.2889 28.3328 23.1132 28.26 22.93 28.26C22.7467 28.26 22.571 28.3328 22.4415 28.4623L21.9155 28.9883C21.7859 29.1179 21.7132 29.2936 21.7132 29.4768C21.7132 29.66 21.7859 29.8357 21.9155 29.9653C21.9796 30.0291 22.0558 30.0796 22.1395 30.1139C22.2233 30.1482 22.314 30.1657 22.4045 30.1653ZM24.7725 32.5343C24.863 32.5347 24.9526 32.5172 25.0364 32.4829C25.1201 32.4486 25.1963 32.3981 25.2605 32.3343L25.7865 31.8083C25.916 31.6787 25.9887 31.503 25.9887 31.3198C25.9887 31.1366 25.916 30.9609 25.7865 30.8313C25.6569 30.7018 25.4812 30.629 25.298 30.629C25.1147 30.629 24.939 30.7018 24.8095 30.8313L24.2835 31.3573C24.1539 31.4869 24.0812 31.6626 24.0812 31.8458C24.0812 32.029 24.1539 32.2047 24.2835 32.3343C24.3476 32.3981 24.4238 32.4486 24.5075 32.4829C24.5913 32.5172 24.682 32.5347 24.7725 32.5343ZM21.4755 33.4633C21.566 33.4637 21.6556 33.4462 21.7394 33.4119C21.8231 33.3776 21.8993 33.3271 21.9635 33.2633L22.4895 32.7373C22.619 32.6077 22.6917 32.432 22.6917 32.2488C22.6917 32.0656 22.619 31.8899 22.4895 31.7603C22.3599 31.6308 22.1842 31.558 22.001 31.558C21.8177 31.558 21.642 31.6308 21.5125 31.7603L20.9865 32.2863C20.8569 32.4159 20.7842 32.5916 20.7842 32.7748C20.7842 32.958 20.8569 33.1337 20.9865 33.2633C21.0506 33.3271 21.1268 33.3776 21.2105 33.4119C21.2943 33.4462 21.384 33.4637 21.4745 33.4633" fill="black"/>
</svg>