<?xml version="1.0" encoding="utf-8"?>
<svg xmlns="http://www.w3.org/2000/svg" height="50" viewBox="0 0 40 50" width="40">
<path d="M13.6861 37.2275C13.6861 31.774 17.317 27.1689 22.2928 25.696V10.5577H0.732425V49.2679H22.2928V48.7586C17.3169 47.2862 13.6861 42.6815 13.6861 37.2275Z" fill="#DFEDFF"/>
<path d="M13.6861 37.2275C13.6861 31.774 17.317 27.1689 22.2928 25.696V19.2785C22.1028 19.2927 21.8973 19.3007 21.6707 19.3007C19.1307 19.3007 19.1307 18.3241 16.591 18.3241C14.0515 18.3241 14.0515 19.3007 11.5117 19.3007C8.9722 19.3007 8.9722 18.3241 6.43274 18.3241C3.89328 18.3241 3.89328 19.3007 1.35381 19.3007C1.12764 19.3007 0.921977 19.2927 0.732425 19.2785V45.901H17.3825C15.1044 43.7129 13.6861 40.6359 13.6861 37.2275Z" fill="#FFD54F"/>
<path d="M18.3865 27.6907V10.5578L22.2928 10.5577V25.696C20.8791 26.1151 19.5548 26.7912 18.3865 27.6907ZM15.6761 43.8544C13.7554 45.9784 10.9791 47.3148 7.88997 47.3148H0.732425V49.2679H22.2928V48.7586C19.5515 47.9471 17.2185 46.1856 15.6761 43.8544Z" fill="#B4E7FD"/>
<path d="M17.3825 45.901H0.732425V49.2679H22.2928V48.7586C20.4267 48.2067 18.7497 47.2141 17.3825 45.901Z" fill="#C0DBFF"/>
<path d="M21.077 45.901H13.1538C11.6063 46.7998 9.80843 47.3148 7.88997 47.3148H0.732425V49.2679H22.2928L22.2927 47.652C22.2077 47.549 22.1273 47.4424 22.0517 47.3324L21.077 45.901Z" fill="#81B8FD"/>
<path d="M8.74103 10.5578H4.55959L6.64133 18.3267C8.82941 18.3756 9.02707 19.1896 11.0808 19.2903L8.74103 10.5578Z" fill="#52B96A"/>
<path d="M4.55959 10.5578H8.74103L6.17676 0.986859C6.15312 0.898977 6.09557 0.82407 6.01674 0.778588C5.93792 0.733106 5.84426 0.720767 5.75635 0.744281L2.51807 1.61215C2.47452 1.6238 2.43369 1.64392 2.39792 1.67136C2.36216 1.6988 2.33215 1.73302 2.30962 1.77207C2.28709 1.81111 2.27248 1.85422 2.26662 1.89892C2.26077 1.94361 2.26378 1.98903 2.27549 2.03256L4.55959 10.5578Z" fill="#7FCD91"/>
<path d="M29.7372 30.0421C28.8065 29.8082 28.1289 29.1316 27.8943 28.2015C30.3654 25.7666 33.632 24.4261 37.1049 24.4261C37.8239 24.4261 38.4072 25.0094 38.4072 25.7288C38.4072 26.4479 37.8239 27.0312 37.1049 27.0312C34.3282 27.0312 31.7162 28.1 29.7372 30.0421Z" fill="#AED581"/>
<path d="M25.2938 20.6198C25.8496 22.6938 27.9466 23.934 29.9774 23.3896C32.0085 22.8453 33.2044 20.7231 32.6485 18.6491C32.0932 16.5751 28.7473 12.6628 27.2134 13.0735C25.6795 13.4848 24.7384 18.5457 25.2938 20.6198Z" fill="#7FCD91"/>
<path d="M32.6485 18.6491C32.0932 16.5751 28.7473 12.6628 27.2134 13.0735C27.0555 13.1159 26.904 13.2082 26.7599 13.3405C28.0873 14.5784 29.3907 16.4465 29.7192 17.6726C30.2747 19.7466 29.0788 21.869 27.0479 22.4131C26.8498 22.4661 26.6511 22.5019 26.4531 22.5218C27.3839 23.3641 28.6934 23.7337 29.9774 23.3896C32.0085 22.8453 33.2044 20.7231 32.6485 18.6491Z" fill="#52B96A"/>
<path d="M33.1646 27.7914C31.9009 28.3019 30.7382 29.0602 29.7372 30.0421C28.8065 29.8082 28.1289 29.1316 27.8943 28.2015C28.6788 27.4274 29.5571 26.7547 30.5088 26.1992C29.0391 25.5587 27.4167 25.2028 25.7107 25.2028C19.0697 25.2028 13.6861 30.5866 13.6861 37.2275C13.6861 43.8685 19.0697 49.2522 25.7107 49.2522C32.3517 49.2522 37.7354 43.8684 37.7354 37.2275C37.7358 33.4021 35.949 29.9937 33.1646 27.7914Z" fill="#FCB54C"/>
<path d="M33.1646 27.7914C32.6722 27.9903 32.1958 28.2267 31.7395 28.4983C33.0583 30.4278 33.8296 32.7609 33.8296 35.2744C33.8296 41.9154 28.4459 47.2991 21.8045 47.2991C20.6783 47.2999 19.5575 47.1426 18.4751 46.8318C20.4885 48.3511 22.9943 49.2522 25.7107 49.2522C32.3517 49.2522 37.7354 43.8684 37.7354 37.2275C37.7358 33.4021 35.949 29.9937 33.1646 27.7914Z" fill="#FA9A0F"/>
<path d="M17.3825 45.901H13.1538C14.0982 45.3525 14.9482 44.6593 15.6761 43.8544C16.1679 44.5975 16.74 45.2837 17.3825 45.901ZM22.2928 25.696V19.2785C22.1028 19.2927 21.8973 19.3007 21.6707 19.3007C19.9265 19.3007 19.3799 18.8403 18.3865 18.5519V27.6907C19.5548 26.7912 20.8791 26.1151 22.2928 25.696ZM13.6861 37.2275C13.6861 35.5662 14.0229 33.9835 14.6321 32.5439L11.0808 19.2903C9.02707 19.1896 8.82941 18.3756 6.64133 18.3267L12.6073 40.592C12.6309 40.6799 12.6885 40.7549 12.7674 40.8004C12.8463 40.8459 12.94 40.8582 13.028 40.8347L14.1468 40.5349C13.8466 39.4838 13.6861 38.3746 13.6861 37.2275Z" fill="#FFC107"/>
<path d="M39.1398 25.7288C39.1398 24.607 38.2268 23.6937 37.1049 23.6937C34.7467 23.6937 32.4758 24.2816 30.4605 25.3855C30.4544 25.3832 30.4479 25.3809 30.4418 25.3783C30.5647 24.9088 30.6312 24.4264 30.6398 23.9412C32.7672 23.1097 33.9715 20.7552 33.3562 18.4595C33.0576 17.3444 32.068 15.7637 30.8355 14.4319C29.791 13.3036 28.283 12.0283 27.0238 12.3663C25.7657 12.7032 25.0962 14.5616 24.756 16.0608C24.3546 17.8305 24.2879 19.6944 24.5866 20.8094C25.145 22.8942 27.0483 24.3132 29.1563 24.2454C29.1367 24.47 29.1013 24.6931 29.049 24.9125C27.0937 24.3819 25.0168 24.3269 23.0252 24.7553V10.5578C23.0252 10.1531 22.6975 9.82537 22.2928 9.82537H16.6161V11.2902H21.5604V18.5672C20.5029 18.5542 19.9864 18.3567 19.3936 18.1289C18.739 17.8772 17.9971 17.5918 16.5909 17.5918C15.1852 17.5918 14.4432 17.8772 13.7886 18.1289C13.2004 18.3551 12.6874 18.5512 11.6456 18.5668L9.69545 11.2898H13.1981V9.82498H9.30297L6.88401 0.797604C6.72991 0.223579 6.14133 -0.117048 5.56682 0.0370545L2.32892 0.904636C1.7544 1.05835 1.41407 1.64731 1.56788 2.22222L3.60529 9.82489H0.732425C0.538174 9.82489 0.351879 9.90205 0.214522 10.0394C0.077166 10.1768 0 10.3631 0 10.5573V49.2679C0 49.4622 0.077166 49.6485 0.214522 49.7858C0.351879 49.9232 0.538174 50.0003 0.732425 50.0003H22.2928C22.4136 50.0003 22.5326 49.9704 22.6391 49.9133C22.7456 49.8561 22.8363 49.7734 22.9031 49.6727C26.3593 50.452 30.1175 49.7867 33.1827 47.5681C33.34 47.4542 33.4456 47.2825 33.4764 47.0907C33.5072 46.8989 33.4605 46.7027 33.3467 46.5453C33.2328 46.388 33.0611 46.2824 32.8693 46.2516C32.6775 46.2208 32.4814 46.2675 32.324 46.3813C30.391 47.7802 28.1042 48.5199 25.7104 48.5199C19.4841 48.5199 14.4185 43.4543 14.4185 37.2278C14.4185 31.0007 19.484 25.9348 25.7104 25.9348C26.6553 25.9348 27.5819 26.0504 28.4819 26.2778C28.3388 26.5101 28.3216 26.5246 27.7135 27.3627C27.6006 27.4665 27.4894 27.5722 27.3801 27.6796C27.2891 27.7692 27.2231 27.881 27.1887 28.0039C27.1542 28.1269 27.1526 28.2567 27.184 28.3804C27.4835 29.5672 28.3712 30.4542 29.5587 30.7525C29.6804 30.7831 29.8078 30.7819 29.9289 30.749C30.0499 30.7162 30.1605 30.6527 30.2499 30.5647C31.0754 29.7548 32.0203 29.1087 33.0442 28.6414C37.6672 32.5885 38.3062 39.4244 34.633 44.1492C34.574 44.2252 34.5305 44.312 34.505 44.4047C34.4795 44.4974 34.4725 44.5943 34.4845 44.6897C34.4964 44.7852 34.527 44.8773 34.5745 44.9609C34.6221 45.0445 34.6856 45.1179 34.7616 45.177C34.8375 45.236 34.9243 45.2795 35.017 45.305C35.1098 45.3305 35.2066 45.3375 35.302 45.3256C35.3975 45.3136 35.4896 45.283 35.5732 45.2355C35.6568 45.1879 35.7303 45.1244 35.7893 45.0485C39.7573 39.9443 39.2846 32.6239 34.6071 28.0848C35.4223 27.871 36.2617 27.763 37.1045 27.7635C38.2268 27.7635 39.1398 26.8506 39.1398 25.7288ZM26.0015 20.4302C25.7672 19.5559 25.8424 17.8923 26.1846 16.3851C26.6004 14.5529 27.1852 13.8395 27.4029 13.7812C27.4186 13.777 27.4377 13.7747 27.4599 13.7747C27.747 13.7747 28.5761 14.147 29.7605 15.4269C30.8103 16.5613 31.7072 17.964 31.9417 18.8387C32.3251 20.2707 31.6804 21.7337 30.4681 22.4071C30.4113 22.1712 30.5604 22.7347 29.8097 19.9327L30.8953 18.0528C30.9435 17.9695 30.9747 17.8776 30.9872 17.7822C30.9998 17.6868 30.9935 17.5899 30.9685 17.497C30.9436 17.4041 30.9007 17.317 30.8421 17.2407C30.7835 17.1644 30.7105 17.1003 30.6272 17.0523C30.5439 17.0042 30.452 16.9729 30.3566 16.9604C30.2613 16.9478 30.1644 16.9542 30.0715 16.9791C29.9786 17.004 29.8915 17.0469 29.8153 17.1055C29.739 17.1641 29.675 17.2371 29.627 17.3204L29.2737 17.9319L28.7126 15.8372C28.6878 15.7443 28.6448 15.6571 28.5862 15.5808C28.5277 15.5045 28.4546 15.4404 28.3713 15.3924C28.288 15.3443 28.196 15.3131 28.1006 15.3006C28.0052 15.2882 27.9082 15.2946 27.8153 15.3196C27.7225 15.3445 27.6354 15.3874 27.5591 15.446C27.4828 15.5045 27.4188 15.5775 27.3707 15.6608C27.3226 15.7441 27.2915 15.8361 27.2789 15.9314C27.2664 16.0268 27.2728 16.1236 27.2978 16.2165L28.2914 19.9251L27.5902 19.5204C27.422 19.4233 27.2221 19.397 27.0344 19.4473C26.8468 19.4976 26.6868 19.6203 26.5897 19.7886C26.4925 19.9568 26.4662 20.1568 26.5165 20.3444C26.5668 20.5321 26.6896 20.6921 26.8578 20.7892L28.8274 21.9263C29.0536 22.7709 29.0128 22.613 29.0525 22.7839C27.6696 22.8022 26.3845 21.8588 26.0015 20.4302ZM13.2611 40.0138L13.2142 40.0265L7.6221 19.1575C8.62386 19.3529 9.13344 19.811 10.5064 19.9762L13.8622 32.4999C12.9016 34.8993 12.7049 37.5273 13.2611 40.0138ZM8.17904 11.2902L10.088 18.415C9.18773 18.1888 8.62806 17.7505 7.21175 17.6249L5.51418 11.2902H8.17904ZM3.08351 2.2189L5.56994 1.55288L7.78675 9.82537H5.1217L3.08351 2.2189ZM3.99797 11.2902L5.69426 17.6212C4.74641 17.7001 4.15968 17.9252 3.63058 18.1289C3.0378 18.3567 2.52159 18.5538 1.46495 18.5672V11.2902H3.99797ZM1.46485 48.5355V46.6334H2.6711C2.76729 46.6334 2.86253 46.6145 2.95139 46.5777C3.04025 46.5409 3.12099 46.4869 3.18901 46.4189C3.25702 46.3509 3.31097 46.2702 3.34778 46.1813C3.38458 46.0924 3.40353 45.9972 3.40353 45.901C3.40353 45.7068 3.32636 45.5205 3.18901 45.3831C3.05165 45.2457 2.86536 45.1686 2.6711 45.1686H1.46485V20.0316C2.79767 20.0167 3.51906 19.7409 4.15617 19.496C4.70207 19.2862 5.18264 19.102 6.08069 19.0642L11.9 40.7817C12.0538 41.3555 12.6435 41.6961 13.2172 41.542L13.6631 41.4226C14.1374 42.7791 14.8376 44.0456 15.7341 45.1687H6.0886C5.89435 45.1687 5.70805 45.2458 5.5707 45.3832C5.43334 45.5206 5.35617 45.7068 5.35617 45.9011C5.35617 46.0954 5.43334 46.2816 5.5707 46.419C5.70805 46.5564 5.89435 46.6335 6.0886 46.6335H17.1021C17.9189 47.3818 18.8291 48.0211 19.8101 48.5355H1.46485ZM14.853 30.5377L12.0342 20.0186C13.1112 19.958 13.746 19.7146 14.3143 19.496C14.9273 19.2603 15.4572 19.0566 16.591 19.0566C17.7251 19.0566 18.2546 19.2603 18.8679 19.496C19.505 19.7409 20.2267 20.0171 21.5603 20.0316V25.1639C18.7547 26.1317 16.3895 28.0524 14.853 30.5377ZM32.9042 27.1075C32.892 27.1121 32.8794 27.1167 32.8671 27.1223C31.6625 27.6118 30.5437 28.3118 29.5587 29.2044C29.2005 29.0343 28.9197 28.7585 28.7443 28.4041C28.7462 28.4026 28.7473 28.4011 28.7488 28.3996C31.038 26.306 33.9868 25.1585 37.1049 25.1585C37.4193 25.1585 37.6749 25.4145 37.6749 25.7289C37.6749 26.0432 37.4193 26.2988 37.1049 26.2988C35.6588 26.2988 34.2374 26.5715 32.9042 27.1075Z" fill="black"/>
<path d="M31.78 37.2275C31.78 37.4218 31.7028 37.6081 31.5655 37.7454C31.4281 37.8828 31.2418 37.9599 31.0476 37.9599C30.8533 37.9599 30.667 37.8828 30.5297 37.7454C30.3923 37.6081 30.3152 37.4218 30.3152 37.2275C30.3152 37.0333 30.3923 36.847 30.5297 36.7096C30.667 36.5723 30.8533 36.4951 31.0476 36.4951C31.2418 36.4951 31.4281 36.5723 31.5655 36.7096C31.7028 36.847 31.78 37.0333 31.78 37.2275ZM34.25 40.8466C34.25 41.0408 34.1729 41.2271 34.0355 41.3645C33.8981 41.5018 33.7118 41.579 33.5176 41.579C33.3233 41.579 33.1371 41.5018 32.9997 41.3645C32.8623 41.2271 32.7852 41.0408 32.7852 40.8466C32.7852 40.4418 33.1128 40.1141 33.5176 40.1141C33.7118 40.1141 33.8981 40.1913 34.0355 40.3287C34.1729 40.466 34.25 40.6523 34.25 40.8466ZM30.9934 43.5984C30.9934 44.0027 30.6653 44.3308 30.261 44.3308C29.8567 44.3308 29.5285 44.0027 29.5285 43.5984C29.5285 43.4042 29.6057 43.2179 29.7431 43.0805C29.8804 42.9432 30.0667 42.866 30.261 42.866C30.4552 42.866 30.6415 42.9432 30.7789 43.0805C30.9162 43.2179 30.9934 43.4042 30.9934 43.5984Z" fill="black"/>
</svg>