<?xml version="1.0" encoding="utf-8"?>
<svg xmlns="http://www.w3.org/2000/svg" fill="none" height="48" viewBox="0 0 54 48" width="54">
<path d="M4.92416 28.1902L4.50416 30.5602L2.36216 32.0942C1.57416 31.5122 0.65316 30.8032 0.63916 30.3382C0.783424 29.5905 1.11163 28.8904 1.59416 28.3012C2.24216 27.9302 3.98016 28.2352 4.92416 28.1902Z" fill="#706A37"/>
<path d="M42.1906 8.72669L42.9036 7.28857C44.0916 7.70861 45.2035 7.82762 45.9155 8.20165C49.9424 10.3098 52.7153 16.6933 52.7863 20.5106C52.9742 30.3314 49.0044 37.332 44.1766 41.8124C41.381 44.5177 37.7074 46.1296 33.8239 46.3547C33.5659 46.3707 33.2369 46.4067 32.884 46.4417L33.9669 43.6265L32.355 41.6063C33.4159 40.1942 34.9069 38.6151 36.0039 37.129C39.1032 34.2889 41.3714 30.659 42.5656 26.6281C43.8356 22.6938 44.4715 15.4722 41.7656 11.6599C41.2877 10.9839 40.3247 10.3598 39.4337 9.41775L41.9836 9.14572L42.1906 8.72669Z" fill="#FFF27D"/>
<path d="M52.7861 20.5106C52.7121 16.6933 49.9422 10.3098 45.9153 8.20165C45.2024 7.82662 44.0914 7.70861 42.9035 7.28857L42.1905 8.72669L41.9905 9.13672H41.9835C44.2631 11.7711 45.7201 15.0163 46.1743 18.4705C46.8743 28.2713 43.2744 35.4648 38.6816 40.1862C37.3144 41.627 35.7072 42.8192 33.9318 43.7095L32.8828 46.4377C33.2358 46.4027 33.5648 46.3667 33.8228 46.3507C37.7063 46.1255 41.3799 44.5137 44.1754 41.8084C49.0032 37.332 52.9751 30.3324 52.7851 20.5066L52.7861 20.5106Z" fill="#FFE33B"/>
<path d="M14.6997 37.9791L13.6607 36.046C15.6657 35.1029 19.4985 33.7228 21.0405 33.1958C27.0103 31.1506 32.1691 24.041 33.602 17.9945C34.2378 15.4971 35.0055 13.0351 35.9019 10.6189C35.9564 10.4595 35.9927 10.2945 36.0099 10.1269L37.7299 10.6859L39.4368 9.41284C40.3278 10.3519 41.2907 10.979 41.7687 11.655C44.4686 15.4673 43.8347 22.6889 42.5687 26.6232C41.3745 30.6541 39.1062 34.284 36.0069 37.1241C32.9014 39.9046 29.0744 41.7524 24.9658 42.4551C20.8572 43.1578 16.6337 42.6869 12.7808 41.0964L14.6997 37.9791Z" fill="#FFF27D"/>
<path d="M41.7697 11.6509C41.2917 10.9748 40.3288 10.3508 39.4378 9.40869L38.2969 10.2608C39.5558 14.3171 38.6188 19.9725 37.3579 23.2428C35.9418 27.2027 33.4747 30.7023 30.2211 33.3666C27.3432 35.5796 24.0002 37.1099 20.4445 37.842C18.5345 38.1962 16.583 38.27 14.6517 38.061L12.7808 41.0972C16.6336 42.6875 20.8569 43.1583 24.9653 42.4557C29.0737 41.753 32.9005 39.9053 36.0059 37.1249C39.1052 34.2848 41.3735 30.6549 42.5677 26.6241C43.8377 22.6888 44.4736 15.4672 41.7677 11.6559L41.7697 11.6509Z" fill="#F9D438"/>
<path d="M4.50362 30.5613L4.92361 28.1912C5.02425 28.1878 5.12451 28.1771 5.2236 28.1592C6.95754 27.8271 11.0674 27.4591 13.0183 27.2681C17.9121 26.786 25.8429 21.8836 28.7178 16.5852C29.7962 14.3139 31.0555 12.133 32.4836 10.0637C32.5746 9.92816 32.6488 9.78208 32.7046 9.62866L35.7715 10.1127L36.0095 10.1217H36.0145C35.9972 10.2893 35.961 10.4543 35.9065 10.6137C35.0101 13.0299 34.2424 15.4919 33.6066 17.9893C32.1736 24.0388 27.0148 31.1484 21.045 33.1906C19.5041 33.7186 15.6712 35.0977 13.6653 36.0408C12.9427 36.2766 12.205 36.4637 11.4574 36.6008C8.41748 35.9306 5.5681 34.5826 3.12167 32.6575C2.92168 32.4965 2.65269 32.3025 2.3667 32.0905L4.50362 30.5613Z" fill="#F8EE4F"/>
<path d="M32.6991 9.62769C32.6421 9.7827 29.4482 15.2281 28.7122 16.5842C25.8403 21.8847 17.9126 26.7851 13.0128 27.2671C11.0618 27.4601 6.95198 27.8262 5.21804 28.1582C5.11896 28.1761 5.0187 28.1868 4.91806 28.1902L4.49707 30.5604C4.49707 30.5604 10.0389 31.9225 14.3337 30.8674C19.1095 29.6943 27.1583 25.483 30.0332 20.1845C30.7701 18.8254 34.78 9.95671 34.78 9.95671L32.6991 9.62769Z" fill="#FFFAC1"/>
<path d="M32.3561 41.6013L33.9681 43.6213L32.8851 46.4363C31.9101 46.5363 30.7511 46.6293 30.4281 46.2933C30.0322 45.6431 29.8043 44.9046 29.7651 44.1443C30.0241 43.3423 31.8531 42.2683 32.3561 41.6013Z" fill="#EADF53"/>
<path d="M11.4528 36.6059C12.2005 36.4688 12.9381 36.2817 13.6608 36.0459L14.6998 37.9769L12.7788 41.0949C11.8518 40.7299 9.8788 40.0869 9.6908 39.4629C9.63249 38.6798 9.76995 37.8946 10.0908 37.1779C10.4933 36.8825 10.96 36.6865 11.4528 36.6059Z" fill="#706A37"/>
<path d="M42.905 7.28721L42.192 8.72521L41.992 9.13521L39.442 9.40721C38.1954 8.14212 37.4982 6.43629 37.502 4.66021C37.48 3.78921 37.866 2.86521 36.877 1.66021L37.002 1.61621C38.642 2.20821 38.702 3.24721 39.13 4.03221C39.9127 5.57028 41.2684 6.73925 42.905 7.28721Z" fill="#8C8448"/>
<path d="M39.4388 9.40714L37.7318 10.6801L36.0118 10.1211C36.2258 8.20614 34.3978 5.59514 34.3978 5.59514V4.19514C34.3978 4.19514 33.2468 2.47014 34.0178 1.06914C34.0598 1.00797 34.1158 0.95783 34.1813 0.923006C34.2468 0.888182 34.3197 0.869702 34.3938 0.869141C35.1854 0.918345 35.9608 1.11541 36.6798 1.45014C36.7478 1.52314 36.8118 1.59514 36.8708 1.66614C37.8598 2.86614 37.4708 3.79214 37.4958 4.66614C37.4921 6.44222 38.1892 8.14805 39.4358 9.41314L39.4388 9.40714Z" fill="#8C8448"/>
<path d="M34.396 5.59611C34.396 5.59611 36.224 8.20711 36.01 10.1221H36.005L35.767 10.1131L32.7 9.62911C33.345 7.88911 32.063 4.96111 32.063 4.96111L32.695 3.66811C32.695 3.66811 32.054 1.75511 33.131 0.641113L34.394 0.870113C34.3198 0.870675 34.2469 0.889155 34.1814 0.923979C34.116 0.958803 34.0599 1.00894 34.018 1.07011C33.247 2.47011 34.398 4.19611 34.398 4.19611L34.396 5.59611Z" fill="#8C8448"/>
<path d="M46.2123 7.63555C45.6863 7.3946 45.1344 7.21474 44.5674 7.0995C43.5469 6.95917 42.5736 6.58143 41.7255 5.99662C40.8775 5.41182 40.1785 4.63626 39.6845 3.73223C39.6061 3.58019 39.5354 3.42432 39.4725 3.2652C39.3017 2.73799 39.0075 2.25917 38.6145 1.86851C38.2214 1.47784 37.7408 1.18661 37.2126 1.01901C37.1852 1.00949 37.1571 1.0018 37.1286 0.996013C37.0742 0.940862 37.0102 0.896124 36.9396 0.864002C36.5219 0.682958 36.093 0.528635 35.6557 0.401965C35.2601 0.27648 34.8467 0.216023 34.4317 0.22295L33.2428 0.00793308C33.1394 -0.0106941 33.0331 -0.00355682 32.9331 0.0287135C32.8332 0.0609839 32.7427 0.117392 32.6698 0.192948C32.2919 0.664868 32.0347 1.22176 31.9204 1.81544C31.8061 2.40912 31.8382 3.02172 32.0138 3.60022L31.4878 4.67731C31.4471 4.76066 31.4251 4.85188 31.4232 4.94462C31.4213 5.03736 31.4396 5.1294 31.4768 5.21435C31.8048 5.96341 32.5478 8.18759 32.1028 9.39669V9.40469C32.0646 9.51033 32.0139 9.61105 31.9518 9.70471C30.7082 11.4831 29.6049 13.3555 28.6519 15.3052C28.4749 15.6632 28.3219 15.9722 28.1519 16.2812C25.344 21.4627 17.5423 26.182 12.9525 26.6331L11.9835 26.7271C9.8446 26.9331 6.61272 27.2431 5.10077 27.5331C5.03825 27.5436 4.97512 27.5499 4.91178 27.5522H4.88978C4.61379 27.5652 4.2178 27.5412 3.83182 27.5182C2.97468 27.3766 2.09567 27.4547 1.27691 27.7452C1.20463 27.7865 1.14112 27.8415 1.08991 27.9072C0.503782 28.6051 0.126656 29.4545 0.00195312 30.3574C0.0249523 31.1084 0.864922 31.7835 2.14388 32.7276C2.36087 32.8876 2.56586 33.0386 2.71886 33.1616C4.77516 34.7724 7.10549 35.9986 9.59761 36.7809C9.5597 36.8266 9.5284 36.8775 9.50461 36.9319C9.11083 37.7798 8.96389 38.7215 9.08063 39.6491C9.31462 40.4222 10.4716 40.9092 12.0805 41.5133C12.2525 41.5773 12.4105 41.6373 12.5455 41.6903C15.4435 42.7934 18.5204 43.3515 21.6212 43.3364C23.3222 43.3642 25.0194 43.1675 26.669 42.7514C28.7071 42.1802 30.6721 41.3748 32.5248 40.3512C32.2928 40.6341 32.0665 40.9215 31.8458 41.2133C31.5564 41.5227 31.2394 41.8052 30.8989 42.0573C30.1692 42.5287 29.571 43.1772 29.1599 43.9425C29.134 44.0218 29.1238 44.1053 29.1299 44.1885C29.1646 45.0991 29.4557 45.9814 29.9699 46.7337C30.1808 46.9021 30.4231 47.0267 30.6827 47.1004C30.9423 47.1741 31.214 47.1953 31.4818 47.1627C31.9528 47.1627 32.5088 47.1137 33.1488 47.0487C33.4168 47.0217 33.6708 46.9957 33.8657 46.9837C37.8974 46.7534 41.7118 45.0812 44.6134 42.2723C48.7512 38.435 53.639 31.5425 53.4261 20.4946C53.3531 16.6623 50.5732 9.91473 46.2143 7.63255L46.2123 7.63555ZM38.1596 4.11526C38.1746 3.93025 38.1896 3.72923 38.1906 3.51522C38.2256 3.59422 38.2596 3.67523 38.2906 3.75824C38.37 3.95778 38.4598 4.15306 38.5596 4.34328C39.3029 5.8017 40.5242 6.96072 42.0195 7.62655L41.5675 8.53862L39.6875 8.73864C38.6807 7.6131 38.1264 6.1545 38.1316 4.64431C38.1316 4.48229 38.1416 4.30428 38.1566 4.11526H38.1596ZM34.5217 1.49305C35.1377 1.55512 35.739 1.71974 36.3007 1.98009C36.554 2.24765 36.7394 2.57217 36.8412 2.92635C36.9431 3.28052 36.9583 3.65397 36.8856 4.01526C36.8647 4.2353 36.8554 4.45629 36.8576 4.67731C36.8622 6.11105 37.2806 7.51298 38.0626 8.71463C38.2016 8.92565 38.3486 9.12267 38.4996 9.30968L37.6106 9.97274L36.6606 9.66371C36.5987 8.78045 36.3664 7.91753 35.9767 7.12251C35.7047 6.52736 35.3892 5.95309 35.0327 5.40437V4.20427C35.0331 4.07761 34.9959 3.95369 34.9257 3.84824C34.6971 3.50686 34.5426 3.12128 34.4723 2.71645C34.4021 2.31161 34.4175 1.89654 34.5177 1.49805L34.5217 1.49305ZM33.3008 3.46221C33.227 3.20971 33.1791 2.95035 33.1578 2.68815C33.2558 3.28175 33.459 3.85309 33.7578 4.37529V5.59538C33.7574 5.72696 33.7976 5.85545 33.8727 5.96341C34.5988 6.9963 35.1061 8.16666 35.3637 9.40269L33.4768 9.10267C33.5588 7.69194 33.3145 6.28129 32.7628 4.98033L33.2688 3.94525C33.3426 3.79438 33.3541 3.62149 33.3008 3.46221ZM2.37187 31.3025C1.95662 31.0223 1.58754 30.6792 1.27791 30.2854C1.41083 29.7499 1.65778 29.2495 2.00188 28.8183C2.5831 28.7397 3.17167 28.7316 3.75482 28.7943L4.16181 28.8173L3.91781 30.1934L2.37187 31.3025ZM3.51583 32.1635L3.44283 32.1065L4.62979 31.2565C5.73746 31.5441 6.85715 31.7834 7.98567 31.9735C8.0699 31.9908 8.15675 31.9909 8.24101 31.9737C8.32528 31.9566 8.40523 31.9227 8.47607 31.874C8.54691 31.8252 8.60718 31.7627 8.65329 31.6901C8.69939 31.6175 8.73037 31.5364 8.74438 31.4515C8.75838 31.3667 8.75512 31.2799 8.73479 31.1964C8.71446 31.1128 8.67747 31.0342 8.62605 30.9653C8.57463 30.8964 8.50984 30.8385 8.43554 30.7953C8.36124 30.752 8.27897 30.7241 8.19366 30.7134C7.19984 30.5458 6.21309 30.3386 5.23577 30.0924L5.47176 28.7612C6.9787 28.4892 10.0526 28.1942 12.1065 27.9962L13.0795 27.9022C18.0793 27.4101 26.237 22.4917 29.2739 16.8883C29.4529 16.5593 29.6179 16.2242 29.7929 15.8702C30.7177 13.9727 31.7903 12.151 33.0008 10.4218C33.0208 10.3918 33.0388 10.3618 33.0578 10.3308L35.2017 10.6698C34.3338 13.0202 33.5905 15.4147 32.9748 17.8434C31.6348 23.5058 26.724 30.5704 20.8282 32.5906C19.4673 33.0566 15.4784 34.4827 13.3845 35.4678C12.9796 35.6123 12.5631 35.7221 12.1395 35.7958C11.9055 35.8458 11.6695 35.8958 11.4395 35.9508C8.55037 35.2881 5.84328 33.9952 3.51183 32.1645L3.51583 32.1635ZM12.5155 40.3112C11.7297 40.0654 10.9832 39.7084 10.2986 39.2511C10.2843 38.6727 10.3969 38.0981 10.6286 37.568C10.9239 37.4162 11.2384 37.3052 11.5635 37.2379C11.6055 37.2317 11.6467 37.2213 11.6865 37.2069C11.9395 37.1459 12.1955 37.0909 12.4145 37.0439C12.7605 36.9689 13.0795 36.9009 13.3585 36.8249L13.9665 37.956L12.5155 40.3112ZM26.315 41.5233C22.1294 42.4196 17.7787 42.1582 13.7305 40.7672L15.0584 38.612C16.0582 38.5711 17.0531 38.4494 18.0333 38.248C18.1935 38.209 18.3324 38.1095 18.421 37.9703C18.5095 37.8312 18.5409 37.6632 18.5085 37.5015C18.4761 37.3398 18.3824 37.1969 18.2471 37.1027C18.1117 37.0084 17.9452 36.9702 17.7823 36.9959C16.8905 37.1784 15.9858 37.2914 15.0764 37.3339L14.5464 36.3469C16.6824 35.4108 20.0292 34.2177 21.2462 33.8007C24.5382 32.5103 27.4042 30.3256 29.5209 27.4931C31.7305 24.7422 33.3323 21.5543 34.2207 18.1394C34.8409 15.7015 35.5889 13.298 36.4617 10.9388L37.5296 11.2858C37.6271 11.3167 37.7305 11.3237 37.8313 11.3063C37.932 11.2889 38.0271 11.2476 38.1086 11.1858L39.3736 10.2428C39.6595 10.5158 39.9415 10.7608 40.1985 10.9828C40.5837 11.2873 40.935 11.6323 41.2465 12.0119C43.7854 15.5942 43.1894 22.5908 41.9555 26.4131C40.7655 30.4158 38.4926 34.0118 35.3877 36.8039C32.7494 39.027 29.6502 40.6359 26.314 41.5143L26.315 41.5233ZM32.4288 45.8376C31.9097 45.9144 31.3818 45.9107 30.8639 45.8266C30.6024 45.3401 30.4492 44.8028 30.4149 44.2515C30.7938 43.8019 31.2256 43.3996 31.7008 43.0534C31.9188 42.8784 32.1218 42.7134 32.3008 42.5534L33.2388 43.7295L32.4288 45.8376ZM43.7424 41.3373C41.0666 43.9239 37.5569 45.4726 33.8428 45.7056L34.5567 43.8485C34.5961 43.7443 34.6076 43.6316 34.5901 43.5216C34.5726 43.4116 34.5266 43.3082 34.4567 43.2214L33.1568 41.5923C33.5808 41.0532 34.0567 40.4922 34.5567 39.9071C35.2217 39.1241 35.9087 38.314 36.4917 37.527C39.6397 34.6212 41.9457 30.9199 43.1664 26.8131C44.3914 23.0128 45.2353 15.4432 42.2844 11.2788C41.916 10.8134 41.4952 10.392 41.0305 10.0227L40.8815 9.89373L42.0485 9.76972C42.1536 9.75852 42.2543 9.72142 42.3415 9.66173C42.4288 9.60203 42.4999 9.52162 42.5484 9.42769C44.2424 9.75372 45.7423 10.8048 47.3783 14.2441C47.4122 14.3231 47.4617 14.3945 47.5239 14.4539C47.5861 14.5134 47.6596 14.5597 47.7401 14.59C47.8205 14.6203 47.9063 14.6341 47.9922 14.6305C48.0782 14.6269 48.1625 14.606 48.2401 14.569C48.3178 14.532 48.3872 14.4797 48.4441 14.4153C48.5011 14.3509 48.5445 14.2756 48.5717 14.194C48.5988 14.1124 48.6093 14.0261 48.6023 13.9404C48.5954 13.8546 48.5712 13.7712 48.5312 13.695C47.3773 11.2688 45.9183 8.96165 43.1314 8.2526L43.2254 8.06358C43.5854 8.16959 43.9314 8.2566 44.2544 8.33661C44.7216 8.4305 45.1775 8.57399 45.6143 8.76464C49.5002 10.7988 52.0761 17.0853 52.1421 20.5196C52.3421 31.0944 47.6843 37.677 43.7374 41.3363L43.7424 41.3373Z" fill="#151515"/>
</svg>