<?xml version="1.0" encoding="utf-8"?>
<svg xmlns="http://www.w3.org/2000/svg" fill="none" height="50" viewBox="0 0 50 50" width="50">
<path d="M13.8905 45.6153H36.1117V49.2654H13.8905V45.6153ZM5.72656 11H44.2737V14.0701H5.72656V11Z" fill="#F9ECD4"/>
<path d="M32.5889 45.6153H36.1107V49.2654H32.5889V45.6153ZM40.7519 11H44.2737V14.0701H40.7519V11Z" fill="#F7E0BA"/>
<path d="M36.3128 11.0001L39.1512 3.41924C39.6378 2.11963 38.677 0.733887 37.2892 0.733887C36.4601 0.733887 35.7179 1.24844 35.4272 2.025L32.0669 11.0002L36.3128 11.0001Z" fill="#C6946A"/>
<path d="M37.2892 0.733887C36.8879 0.733826 36.4961 0.855344 36.1653 1.08242C36.8798 1.57559 37.2389 2.51787 36.9014 3.41924L34.063 11.0001H36.3127L39.1511 3.41924C39.6378 2.11953 38.6769 0.733887 37.2892 0.733887Z" fill="#B27C57"/>
<path d="M36.3725 45.6159H13.6282C12.6078 45.6159 11.7587 44.8317 11.6777 43.8145L9.31104 14.0703H40.6896L38.3229 43.8146C38.242 44.8317 37.393 45.6159 36.3725 45.6159Z" fill="#73CDFF"/>
<path d="M37.1678 14.0703L34.8011 43.8146C34.7202 44.8318 33.8711 45.616 32.8506 45.616H36.3725C37.3929 45.616 38.242 44.8318 38.3229 43.8146L40.6896 14.0703H37.1678Z" fill="#36C2FF"/>
<path d="M39.8519 24.5996H32.396C30.7879 22.235 28.0756 20.6816 25.0004 20.6816C21.9252 20.6816 19.2128 22.235 17.6048 24.5996H10.1489L10.9478 34.639H17.6047C19.2128 37.0036 21.9251 38.5569 25.0003 38.5569C28.0755 38.5569 30.7879 37.0036 32.3959 34.639H39.0528L39.8519 24.5996Z" fill="#F9ECD4"/>
<path d="M36.33 24.5996L35.5312 34.639H39.0531L39.852 24.5996H36.33Z" fill="#F7E0BA"/>
<path d="M44.274 10.2664H37.3709L39.8383 3.67657C39.9925 3.26477 40.0446 2.82177 39.9902 2.38544C39.9358 1.94912 39.7765 1.53246 39.526 1.17111C39.2754 0.809827 38.9411 0.514609 38.5516 0.3107C38.1621 0.106791 37.729 0.000257112 37.2893 0.000209895C36.1603 0.000209895 35.1359 0.71056 34.7403 1.76769L31.5582 10.2664H17.8395C20.5086 9.57529 22.8842 8.66191 24.9164 7.54141C27.9841 5.84981 30.2794 3.68077 31.7384 1.09435C31.7858 1.01043 31.8161 0.918004 31.8277 0.822352C31.8394 0.7267 31.832 0.629696 31.8062 0.536878C31.7803 0.444061 31.7364 0.357251 31.677 0.281404C31.6175 0.205558 31.5437 0.142163 31.4598 0.0948386C31.1073 -0.10438 30.6594 0.0205224 30.4603 0.373354C29.1393 2.71505 27.0404 4.6918 24.2216 6.24854C21.9309 7.51387 19.1647 8.50605 15.9998 9.19765C11.967 10.0789 8.29941 10.2415 6.65683 10.2663H5.72695C5.71699 10.2663 5.70732 10.2674 5.69736 10.2678C5.68584 10.2683 5.67432 10.2685 5.66279 10.2695C5.64922 10.2707 5.63584 10.2727 5.62246 10.2746C5.61142 10.2762 5.60039 10.2776 5.58945 10.2797C5.57685 10.282 5.56455 10.2852 5.55205 10.2882C5.54062 10.2909 5.5291 10.2936 5.51777 10.297C5.50693 10.3002 5.49639 10.304 5.48564 10.3077C5.47324 10.312 5.46084 10.3163 5.44863 10.3212C5.43984 10.3248 5.43135 10.3289 5.42275 10.3328C5.40928 10.3389 5.39596 10.3452 5.38281 10.3519C5.37607 10.3556 5.36953 10.3595 5.36289 10.3633C5.34854 10.3713 5.33447 10.3798 5.3207 10.3889C5.31572 10.3922 5.31103 10.3957 5.30615 10.3991C5.2915 10.4094 5.27695 10.4199 5.26309 10.4313C5.25937 10.4344 5.25596 10.4375 5.25234 10.4406C5.23782 10.4528 5.22381 10.4655 5.21035 10.4788L5.20166 10.4879C5.18817 10.5016 5.17521 10.5159 5.16279 10.5306L5.15459 10.5409C5.14277 10.5556 5.13144 10.5706 5.1207 10.5862C5.11768 10.5907 5.11494 10.5953 5.11191 10.5998C5.10216 10.6147 5.09291 10.6298 5.08418 10.6453C5.08076 10.6516 5.07764 10.658 5.07441 10.6643C5.067 10.6785 5.06003 10.6929 5.05352 10.7076C5.0499 10.716 5.04678 10.7246 5.04336 10.7332C5.03809 10.7464 5.03323 10.7597 5.02881 10.7731C5.02529 10.7839 5.02246 10.7949 5.01943 10.806C5.01621 10.8179 5.01289 10.8296 5.01025 10.8418C5.00742 10.8547 5.00537 10.8678 5.00322 10.881C5.00146 10.8918 4.99951 10.9024 4.99824 10.9135C4.99658 10.9274 4.9958 10.9418 4.99492 10.956C4.99443 10.9639 4.99326 10.9715 4.99307 10.9795C4.99297 10.9825 4.99336 10.9854 4.99326 10.9885C4.99316 10.9924 4.99268 10.9961 4.99268 11V14.0701C4.99268 14.2647 5.06997 14.4513 5.20757 14.5889C5.34516 14.7265 5.53178 14.8038 5.72637 14.8038H8.633L10.0257 32.3062L10.2159 34.697V34.6972L10.946 43.8723C11.0438 45.101 11.9771 46.0937 13.1557 46.3064V49.266C13.1557 49.4606 13.233 49.6472 13.3706 49.7848C13.5082 49.9224 13.6948 49.9997 13.8894 49.9997H36.1103C36.3049 49.9997 36.4915 49.9224 36.6291 49.7848C36.7667 49.6472 36.844 49.4606 36.844 49.266V46.3064C38.0227 46.0936 38.956 45.101 39.0537 43.8723L39.7838 34.6972V34.697L39.974 32.3062L41.3666 14.8038H44.2733C44.4678 14.8038 44.6545 14.7265 44.7921 14.5889C44.9297 14.4513 45.007 14.2647 45.007 14.0701V10.9999C45.0078 10.5949 44.6793 10.2664 44.274 10.2664ZM36.1146 2.28214C36.2968 1.79493 36.769 1.46759 37.2893 1.46759C37.7067 1.46759 38.0823 1.66437 38.3201 2.00724C38.5579 2.35021 38.6104 2.7711 38.4642 3.16192L35.804 10.2664H33.1251L36.1146 2.28214ZM36.3726 44.8821H20.2752C20.0806 44.8821 19.894 44.9594 19.7564 45.097C19.6188 45.2345 19.5415 45.4212 19.5415 45.6157C19.5415 45.8103 19.6188 45.997 19.7564 46.1345C19.894 46.2721 20.0806 46.3494 20.2752 46.3494H35.3771V48.5325H14.6238V46.3495H17.3404C17.535 46.3495 17.7216 46.2722 17.8592 46.1346C17.9968 45.9971 18.0741 45.8104 18.0741 45.6158C18.0741 45.4213 17.9968 45.2346 17.8592 45.097C17.7216 44.9595 17.535 44.8822 17.3404 44.8822H13.6285C12.9951 44.8822 12.4598 44.3876 12.4096 43.7563L11.7425 35.3728H17.2262C19.0491 37.8333 21.9264 39.2908 25.0006 39.2908C28.0749 39.2908 30.9522 37.8333 32.775 35.3728H38.2588L37.5917 43.7563C37.5413 44.3875 37.006 44.8821 36.3726 44.8821ZM43.5404 13.3365H34.3182C34.1236 13.3365 33.937 13.4138 33.7994 13.5514C33.6618 13.689 33.5845 13.8756 33.5845 14.0702C33.5845 14.2648 33.6618 14.4514 33.7994 14.589C33.937 14.7266 34.1236 14.8039 34.3182 14.8039H39.8954L39.1743 23.8658H32.7748C30.952 21.4052 28.0747 19.9478 25.0004 19.9478C23.6553 19.9478 22.3533 20.2189 21.1302 20.7536C20.9519 20.8315 20.8119 20.9771 20.7409 21.1583C20.67 21.3395 20.6739 21.5415 20.7518 21.7198C20.8298 21.8981 20.9754 22.0381 21.1566 22.1091C21.3378 22.1801 21.5397 22.1762 21.718 22.0982C22.7546 21.6451 23.8589 21.4154 25.0004 21.4154C27.7199 21.4154 30.2577 22.7601 31.7894 25.0124C31.8567 25.1113 31.9471 25.1923 32.0529 25.2483C32.1587 25.3042 32.2765 25.3335 32.3961 25.3335H39.0576L38.809 28.4565L38.3754 33.9053H32.3961C32.2765 33.9053 32.1587 33.9346 32.0529 33.9905C31.9471 34.0465 31.8567 34.1275 31.7894 34.2264C30.2578 36.4787 27.7199 37.8234 25.0004 37.8234C22.281 37.8234 19.7432 36.4787 18.2115 34.2264C18.1442 34.1275 18.0538 34.0465 17.948 33.9905C17.8422 33.9346 17.7244 33.9053 17.6048 33.9053H11.6255L11.1919 28.4565L10.9433 25.3335H17.6048C17.7244 25.3335 17.8423 25.3042 17.948 25.2482C18.0538 25.1922 18.1442 25.1112 18.2115 25.0123C18.5682 24.4878 18.9842 24.0063 19.4513 23.5772C19.5946 23.4456 19.6798 23.2624 19.688 23.0679C19.6962 22.8735 19.6269 22.6838 19.4952 22.5405C19.3636 22.3971 19.1804 22.312 18.9859 22.3038C18.7915 22.2955 18.6018 22.3649 18.4585 22.4966C18.0053 22.9131 17.5927 23.3716 17.2261 23.866H10.8266L10.1056 14.8041H31.3832C31.5777 14.8041 31.7644 14.7268 31.902 14.5892C32.0395 14.4516 32.1168 14.265 32.1168 14.0704C32.1168 13.8758 32.0395 13.6892 31.902 13.5516C31.7644 13.414 31.5777 13.3367 31.3832 13.3367H6.46064V11.7385C6.56943 11.7377 6.43965 11.7398 6.56943 11.7377L43.5403 11.7341L43.5404 13.3365Z" fill="black"/>
</svg>